<svg width="490.63141" height="134.95531" viewBox="0 0 490.63141 134.95531" fill="none" version="1.1" id="svg13" xmlns="http://www.w3.org/2000/svg" xmlns:svg="http://www.w3.org/2000/svg">
  <path id="path2" style="fill:url(#paint0_linear_136_146);stroke-width:1.04576" d="m 63.756124,0 c -6.53449,0 -13.52364,10.528598 -17.87994,26.864841 5.89911,2.541182 11.89007,5.534977 17.87994,8.892996 5.71766,-3.176476 11.79789,-6.261147 17.8779,-8.892996 C 77.277414,10.437929 70.381494,1.045e-4 63.756124,0 Z m -51.40124,24.134033 c -4.5669703,-0.10719 -7.8525103,0.802312 -9.4975723,2.730808 -3.993316,4.628611 2.270072,18.514006 21.6013523,36.393051 6.62517,-5.717556 13.9752,-11.344809 21.87095,-16.699382 3.63023,-2.450411 7.35223,-4.718484 10.98246,-6.987351 -18.65603,-10.045607 -34.90988,-15.20131 -44.95719,-15.437126 z m 103.584766,0.0081 c -9.80185,1.06e-4 -26.138866,4.809328 -45.741516,15.337038 3.7208,2.268867 7.44258,4.538874 10.98246,6.989401 7.98643,5.445334 15.33809,11.072587 21.872996,16.69937 14.33938,-13.159765 21.78025,-24.596432 22.68796,-31.403245 0.2719,-2.1782 -0.0899,-3.812024 -1.08865,-4.991843 -1.45254,-1.724343 -4.44761,-2.63072 -8.71325,-2.630721 z M 63.756124,43.110759 c -4.71928,2.722726 -9.34913,5.625508 -13.88687,8.711213 -8.44039,5.71766 -16.24471,11.707277 -23.05151,17.788022 C 5.5810937,88.487009 -3.1596003,105.25089 1.0129467,110.15339 c 6.534497,7.62355 40.6879673,-2.69596 76.6280173,-26.928171 7.89543,-5.354679 14.79334,-10.62028 20.69245,-15.702643 -5.89911,-5.082365 -12.79702,-10.34603 -20.69245,-15.700604 -4.71949,-3.176476 -9.34679,-6.079259 -13.88484,-8.711213 z m 39.387336,28.678576 c -3.358946,2.904162 -6.898096,5.807845 -10.618886,8.621341 -0.5438,8.712381 -1.7224,16.69882 -3.26594,23.868514 21.237166,8.53126 32.400166,7.44308 35.486186,3.9032 0.99765,-1.17961 1.36055,-2.81354 1.08865,-4.99184 -0.90772,-6.80682 -8.35064,-18.241556 -22.69001,-31.401215 z M 85.627094,85.402507 c -1.45255,0.998172 -2.90408,1.996116 -4.35663,2.994287 -11.34434,7.623227 -23.59483,14.521446 -35.30235,19.603806 4.26562,16.51768 11.25352,26.95471 17.78801,26.95471 8.7127,0 18.87594,-18.42384 21.87097,-49.552803 z"/>
  <path d="m 189.22642,110.51357 h -10.1 V 83.913567 l 1.3,1.4 c -0.733,2.4 -1.933,4.4667 -3.6,6.2 -1.6,1.6667 -3.567,2.9667 -5.9,3.9 -2.333,0.867 -4.867,1.3 -7.6,1.3 -5.067,0 -9.267,-1.267 -12.6,-3.8 -3.267,-2.6 -5.7,-6 -7.3,-10.2 -1.6,-4.2 -2.4,-8.8 -2.4,-13.8 0,-5 0.8,-9.6 2.4,-13.8 1.6,-4.2 4.033,-7.5667 7.3,-10.1 3.333,-2.6 7.533,-3.9 12.6,-3.9 4.2,0 7.8,1.1 10.8,3.3 3.067,2.1333 5.233,5.2667 6.5,9.4 l -1.2,0.6 0.2,-12.1 h 9.6 z m -24,-23.100003 c 2.867,0 5.333,-0.666701 7.4,-2 2.067,-1.400001 3.667,-3.466701 4.8,-6.200001 1.133,-2.7333 1.7,-6.1667 1.7,-10.299999 0,-4.133301 -0.6,-7.5667 -1.8,-10.3 -1.133,-2.7333 -2.733,-4.7667 -4.8,-6.1 -2.067,-1.4 -4.5,-2.1 -7.3,-2.1 -4.267,0 -7.6,1.6 -10,4.8 -2.4,3.2 -3.6,7.7667 -3.6,13.7 0,5.9333 1.2,10.5 3.6,13.7 2.4,3.2 5.733,4.8 10,4.8 z m 65.361,9.299999 c -3.733,0 -7,-0.833 -9.8,-2.5 -2.8,-1.7333 -4.967,-4.033299 -6.5,-6.9 l -0.3,8.2 h -9.4 v -71 h 10.1 v 25.3 c 1.333,-2.3333 3.367,-4.3667 6.1,-6.1 2.8,-1.7333 6.067,-2.6 9.8,-2.6 4.533,0 8.467,1.1333 11.8,3.4 3.333,2.2 5.9,5.4 7.7,9.6 1.8,4.1333 2.7,9.0667 2.7,14.8 0,5.7333 -0.9,10.7 -2.7,14.9 -1.8,4.1333 -4.367,7.3333 -7.7,9.6 -3.333,2.2 -7.267,3.3 -11.8,3.3 z m -1.7,-9.299999 c 4.2,0 7.467,-1.633301 9.8,-4.900001 2.333,-3.333299 3.5,-7.866699 3.5,-13.599999 0,-5.8 -1.167,-10.3333 -3.5,-13.6 -2.333,-3.2667 -5.533,-4.9 -9.6,-4.9 -3,0 -5.567,0.7333 -7.7,2.2 -2.133,1.4667 -3.8,3.5667 -5,6.3 -1.133,2.7333 -1.7,6.066699 -1.7,10 0,3.799999 0.567,7.099999 1.7,9.9 1.2,2.7333 2.833,4.8667 4.9,6.4 2.133,1.4667 4.667,2.2 7.6,2.2 z m 53.861,8.099999 V 39.613567 c 0,-2.0667 -0.6,-3.6667 -1.8,-4.8 -1.133,-1.2 -2.733,-1.8 -4.8,-1.8 h -12.2 v -8.500001 h 13.3 c 5.133,0 9,1.3333 11.6,4 2.667,2.6 4,6.466701 4,11.600001 v 55.399999 z m -20.8,0 v -8.5 h 48.8 v 8.5 z m 77.161,1.2 c -3.334,0 -6.334,-0.599999 -9,-1.799999 -2.667,-1.200001 -4.8,-2.900001 -6.4,-5.1 -1.534,-2.2 -2.3,-4.7667 -2.3,-7.7 0,-4.5333 1.366,-8.0667 4.1,-10.6 2.8,-2.5333 7,-4.3333 12.6,-5.4 l 17.2,-3.6 c 0,-4.1333 -0.9,-7.2333 -2.7,-9.3 -1.8,-2.0667 -4.5,-3.1 -8.1,-3.1 -3.334,0 -5.934,0.7667 -7.8,2.3 -1.867,1.5333 -3.134,3.6667 -3.8,6.4 l -10.6,-0.7 c 1,-5.0667 3.433,-9.1667 7.3,-12.3 3.866,-3.1333 8.833,-4.7 14.9,-4.7 6.8,0 11.966,1.9333 15.5,5.8 3.6,3.8667 5.4,9.2 5.4,16 v 21 c 0,1.2 0.266,2.066699 0.8,2.599999 0.533,0.4667 1.3,0.7 2.3,0.7 h 3 v 8.3 c -0.4,0.067 -1.067,0.133 -2,0.2 -0.867,0.067 -1.734,0.1 -2.6,0.1 -2.4,0 -4.434,-0.4 -6.1,-1.2 -1.667,-0.8 -2.934,-2.0333 -3.8,-3.7 -0.8,-1.7333 -1.267,-3.9 -1.4,-6.5 h 1.6 c -0.4,2.3333 -1.434,4.4333 -3.1,6.3 -1.667,1.8667 -3.8,3.3333 -6.4,4.4 -2.6,1.067 -5.467,1.6 -8.6,1.6 z m 1.5,-8.299999 c 3.2,0 5.9,-0.5667 8.1,-1.700001 2.2,-1.1333 3.833,-2.7333 4.9,-4.799999 1.133,-2.0667 1.7,-4.5 1.7,-7.3 v -4.100001 l -14.8,3 c -3.2,0.6 -5.434,1.5333 -6.7,2.8 -1.267,1.2667 -1.9,2.9333 -1.9,5 0,2.2 0.766,3.9333 2.3,5.2 1.533,1.2667 3.666,1.900001 6.4,1.900001 z m 43.461,7.099999 v -9.5 l 32.2,-35.2 h -31.2 v -8.5 h 42.6 v 9.5 l -32.3,35.2 h 33.1 v 8.5 z m 82.861,1.2 c -5,0 -9.367,-1.132999 -13.1,-3.4 -3.667,-2.2667 -6.534,-5.5 -8.6,-9.7 -2,-4.2 -3,-9.1 -3,-14.7 0,-5.6 1,-10.4667 3,-14.6 2.066,-4.1333 4.9,-7.3667 8.5,-9.7 3.666,-2.3333 7.966,-3.5 12.9,-3.5 4.733,0 8.9,1.1333 12.5,3.4 3.6,2.2 6.4,5.4 8.4,9.6 2.066,4.1333 3.1,9.133301 3.1,15 v 2.8 h -37.8 c 0.333,5.0667 1.733,8.9333 4.2,11.6 2.533,2.6 5.866,3.9 10,3.9 3.133,0 5.733,-0.7333 7.8,-2.2 2.066,-1.5333 3.5,-3.5 4.3,-5.9 l 10.6,0.7 c -1.534,5.0667 -4.3,9.1333 -8.3,12.2 -3.934,3 -8.767,4.5 -14.5,4.5 z m -14.1,-32.899999 h 26.9 c -0.4,-4.5333 -1.8,-7.9 -4.2,-10.1 -2.334,-2.2 -5.3,-3.3 -8.9,-3.3 -3.734,0 -6.8,1.1333 -9.2,3.4 -2.4,2.2667 -3.934,5.6 -4.6,10 z" fill="#253c58" id="path4" style="fill:#3c6290;fill-opacity:1"/>
  <defs id="defs11">
    <linearGradient id="paint0_linear_136_146" x1="132" y1="49" x2="18" y2="140" gradientUnits="userSpaceOnUse" gradientTransform="matrix(1.0457538,0,0,1.0457538,-40.679199,-11.502989)">
      <stop stop-color="#FFA11A" id="stop6"/>
      <stop offset="0.49369" stop-color="#FFD22E" id="stop8"/>
    </linearGradient>
    <filter id="lift" x="-0.034562975" y="-0.031814225" width="1.069126" height="1.0724657">
      <feOffset dx="0" dy="2" id="feOffset21"/>
      <feGaussianBlur stdDeviation="3" result="b" id="feGaussianBlur23"/>
      <feColorMatrix in="b" type="matrix" values="0 0 0 0 0                 0 0 0 0 0                 0 0 0 0 0                 0 0 0 .28 0" id="feColorMatrix25"/>
      <feBlend in="SourceGraphic" in2="b" mode="normal" id="feBlend27"/>
    </filter>
    <linearGradient id="warmB" x1="0" y1="1" x2="1" y2="0">
      <stop offset="0%" stop-color="#FFF0B2" id="stop11"/>
      <stop offset="100%" stop-color="#FFA000" id="stop13"/>
    </linearGradient>
    <linearGradient id="warmA" x1="0" y1="0" x2="1" y2="1">
      <stop offset="0%" stop-color="#FFE082" id="stop4"/>
      <stop offset="55%" stop-color="#FFB300" id="stop6-3"/>
      <stop offset="100%" stop-color="#FF6D00" id="stop8-6"/>
    </linearGradient>
    <linearGradient id="warmC" x1="0" y1="0" x2="0" y2="1">
      <stop offset="0%" stop-color="#FFCA28" id="stop16"/>
      <stop offset="100%" stop-color="#F57C00" id="stop18"/>
    </linearGradient>
  </defs>
</svg>
